<svg xmlns="http://www.w3.org/2000/svg" viewBox="0 0 24 24" fill="#25D366">
    <path d="M17.6 6.32A8.39 8.39 0 0012 4.05a8.48 8.48 0 00-8.48 8.48c0 1.5.39 2.96 1.12 4.24L4 21l4.32-.64a8.43 8.43 0 004.03 1.03h.01a8.48 8.48 0 008.47-8.48 8.39 8.39 0 00-3.23-6.59zm-5.6 13.01h-.01a7 7 0 01-3.58-.98l-.25-.15-2.65.7.71-2.6-.17-.27a7.04 7.04 0 01-1.08-3.73 7.05 7.05 0 0114.1 0 7.05 7.05 0 01-7.07 7.03zm3.86-5.27c-.21-.11-1.25-.62-1.45-.69-.19-.07-.33-.11-.47.11-.14.21-.54.69-.66.83-.12.14-.24.15-.45.05a5.66 5.66 0 01-2.84-2.47c-.21-.37.21-.34.61-1.14.07-.14.03-.26-.02-.36-.05-.11-.47-1.13-.64-1.55-.17-.41-.34-.35-.47-.35-.12-.01-.26-.01-.4-.01s-.37.05-.56.26c-.19.21-.73.71-.73 1.73s.75 2.01.86 2.15c.11.14 1.5 2.29 3.64 3.21.51.22.9.35 1.21.45.51.16.97.14 1.33.08.41-.06 1.25-.51 1.43-1.01.18-.49.18-.91.13-1a.97.97 0 00-.44-.23z"/>
</svg> 