<svg width="32" height="32" viewBox="0 0 32 32" fill="none" xmlns="http://www.w3.org/2000/svg">
    <circle cx="16" cy="16" r="16" fill="#0A66C2"/>
    <path d="M11.5 13.5H8.5V22.5H11.5V13.5Z" fill="white"/>
    <path d="M10 12C11.1046 12 12 11.1046 12 10C12 8.89543 11.1046 8 10 8C8.89543 8 8 8.89543 8 10C8 11.1046 8.89543 12 10 12Z" fill="white"/>
    <path d="M23.5 22.5H20.5V18C20.5 16.5 19.5 16 18.5 16C17.5 16 16.5 16.8 16.5 18.3V22.5H13.5V13.5H16.5V14.5C16.9 14 18.2 13 19.7 13C21.7 13 23.5 14.4 23.5 17.4V22.5Z" fill="white"/>
</svg> 