<svg width="32" height="32" viewBox="0 0 32 32" fill="none" xmlns="http://www.w3.org/2000/svg">
    <circle cx="16" cy="16" r="16" fill="#25D366"/>
    <path d="M22 15.93C22 19.23 19.32 21.93 16 21.93C14.84 21.93 13.72 21.64 12.78 21.11L9 22L9.88 18.28C9.32 17.33 9 16.17 9 14.93C9 11.63 11.68 8.93 15 8.93C18.32 8.93 22 11.63 22 15.93ZM16 10.93C12.77 10.93 10.16 13.13 10.16 15.93C10.16 17.03 10.52 18.06 11.14 18.91L10.63 21.01L12.77 20.49C13.61 21.06 14.77 21.39 16 21.39C19.23 21.39 21.84 19.19 21.84 16.39C21.84 13.59 19.23 10.93 16 10.93ZM19.07 17.74C19 17.64 18.86 17.57 18.63 17.43C18.41 17.29 17.32 16.75 17.12 16.67C16.91 16.59 16.75 16.55 16.6 16.77C16.45 17 16.01 17.47 15.88 17.63C15.74 17.78 15.61 17.81 15.38 17.67C15.15 17.53 14.44 17.31 13.59 16.54C12.94 15.95 12.49 15.22 12.36 14.99C12.23 14.77 12.34 14.64 12.45 14.53C12.56 14.42 12.68 14.24 12.79 14.11C12.9 13.98 12.94 13.88 13.02 13.73C13.1 13.57 13.07 13.44 13.01 13.33C12.95 13.22 12.5 12.13 12.31 11.67C12.13 11.23 11.94 11.28 11.8 11.27H11.33C11.17 11.27 10.92 11.33 10.72 11.56C10.51 11.79 9.94 12.33 9.94 13.42C9.94 14.51 10.71 15.56 10.82 15.72C10.93 15.88 12.49 18.31 14.89 19.24C15.4 19.46 15.8 19.59 16.11 19.69C16.62 19.86 17.09 19.83 17.46 19.77C17.87 19.7 18.74 19.23 18.93 18.71C19.12 18.18 19.12 17.73 19.07 17.64V17.74Z" fill="white"/>
</svg> 